# xmcd CD database file
#
# Track frame offsets:
#	210
#	21552
#	41702
#	67544
#	89152
#	113840
#	136380
#	166304
#	189333
#	210270
#	227441
#	248560
#
# Disc length: 3567 seconds
#
# Revision: 1
# Processed by: cddbd v1.4PL0 Copyright (c) Steve Scherf et al.
# Submitted via: CDex 1.50beta10
#
DISCID=970ded0c
DTITLE=Jerry McCain - American Roots: Blues
DYEAR=2002
DGENRE=Blues
TTITLE0=Blues Tribute
TTITLE1=Messin With Me Baby
TTITLE2=Sue Somebody
TTITLE3=Burn That Crackhouse Down
TTITLE4=Ive Got The Blues All Over Me
TTITLE5=Brand New Mojo
TTITLE6=Tumblin In The Sea
TTITLE7=Spoiled Rotten To The Bone
TTITLE8=Strut Your Stuff
TTITLE9=Lucy Pearl
TTITLE10=Love Makin Showdown
TTITLE11=The Worlds On Fire
EXTD=c 1998 Ichiban Blues, distributed by Ichiban Records Atlanta GA 31139-1677\n"In a perfect world, Jerry would be an acknowledged National Treasure\n"...I had the pleassure to produce for Jerry...solo after solo, each better than the last...\n""...a d
EXTD=evoted husband, a good and honest friend, all of us send\n"our ove and best wishes to Jerry..." -Bryan Cole YEAR: 2002
EXTT0=
EXTT1=
EXTT2=
EXTT3=
EXTT4=
EXTT5=
EXTT6=
EXTT7=
EXTT8=
EXTT9=
EXTT10=
EXTT11=
PLAYORDER=
